<svg width="71" height="71" viewBox="0 0 71 71" fill="none" xmlns="http://www.w3.org/2000/svg">
<path d="M35.6118 57.3946C47.9398 57.3946 57.9337 47.4007 57.9337 35.0727C57.9337 22.7447 47.9398 12.7509 35.6118 12.7509C23.2838 12.7509 13.2899 22.7447 13.2899 35.0727C13.2899 47.4007 23.2838 57.3946 35.6118 57.3946Z" fill="#89EF86"/>
<path d="M49.7765 40.5464C49.7882 42.0407 49.5011 43.5223 48.9321 44.9041C36.8104 47.8447 24.2519 45.234 22.2527 44.7779C21.7104 43.4336 21.4367 41.996 21.4471 40.5464H21.5539C21.5539 40.5464 35.9175 44.0306 49.5921 40.6144L49.7765 40.5464Z" fill="white"/>
<path d="M48.9321 44.9041C47.1949 49.0482 42.7693 51.9209 35.6457 51.9209C28.4542 51.9209 23.9704 48.9802 22.2526 44.7779C24.2519 45.234 36.8104 47.8447 48.9321 44.9041Z" fill="white"/>
<path d="M35.6118 57.3946C47.9398 57.3946 57.9337 47.4007 57.9337 35.0727C57.9337 22.7447 47.9398 12.7509 35.6118 12.7509C23.2838 12.7509 13.2899 22.7447 13.2899 35.0727C13.2899 47.4007 23.2838 57.3946 35.6118 57.3946Z" stroke="#2B3674" stroke-width="2" stroke-linecap="round" stroke-linejoin="round"/>
<path d="M49.7765 40.5464C49.7882 42.0407 49.5011 43.5223 48.9321 44.9041C36.8104 47.8447 24.2519 45.234 22.2527 44.7779C21.7104 43.4336 21.4367 41.996 21.4471 40.5464H21.5539C21.5539 40.5464 35.9175 44.0306 49.5921 40.6144L49.7765 40.5464Z" stroke="#2B3674" stroke-width="2" stroke-linecap="round" stroke-linejoin="round"/>
<path d="M48.9321 44.9041C47.1949 49.0482 42.7693 51.9209 35.6457 51.9209C28.4542 51.9209 23.9704 48.9802 22.2526 44.7779C24.2519 45.234 36.8104 47.8447 48.9321 44.9041Z" stroke="#2B3674" stroke-width="2" stroke-linecap="round" stroke-linejoin="round"/>
<path d="M31.4328 31.5828C31.0725 30.7718 30.4848 30.0828 29.7408 29.5992C28.9968 29.1156 28.1285 28.8582 27.2411 28.8582C26.3537 28.8582 25.4854 29.1156 24.7414 29.5992C23.9974 30.0828 23.4097 30.7718 23.0494 31.5828M48.1742 31.5828C47.8139 30.7718 47.2262 30.0828 46.4822 29.5992C45.7382 29.1156 44.8699 28.8582 43.9825 28.8582C43.0951 28.8582 42.2268 29.1156 41.4828 29.5992C40.7388 30.0828 40.1511 30.7718 39.7908 31.5828" stroke="#2B3674" stroke-width="2" stroke-miterlimit="10" stroke-linecap="round"/>
</svg>
