<svg width="71" height="71" viewBox="0 0 71 71" fill="none" xmlns="http://www.w3.org/2000/svg">
<path d="M36.0615 13.0576C23.8602 13.0576 13.9337 22.984 13.9337 35.1853C13.9337 47.3866 23.8602 57.3131 36.0615 57.3131C48.2628 57.3131 58.1892 47.3866 58.1892 35.1853C58.1892 22.984 48.2628 13.0576 36.0615 13.0576Z" fill="#FACC87"/>
<path d="M35.8673 57.3946C48.1954 57.3946 58.1892 47.4007 58.1892 35.0727C58.1892 22.7447 48.1954 12.7509 35.8673 12.7509C23.5393 12.7509 13.5455 22.7447 13.5455 35.0727C13.5455 47.4007 23.5393 57.3946 35.8673 57.3946Z" stroke="black" stroke-width="2" stroke-miterlimit="10"/>
<path d="M44.3108 42.7592C38.1694 41.0744 33.2372 41.8799 27.4238 44.6051" stroke="black" stroke-width="2" stroke-linecap="round" stroke-linejoin="round"/>
<path d="M30.0442 30.2201C30.0246 30.9793 29.7093 31.7008 29.1654 32.2308C28.6215 32.7609 27.8921 33.0575 27.1327 33.0575C26.3732 33.0575 25.6439 32.7609 25.1 32.2308C24.5561 31.7008 24.2407 30.9793 24.2211 30.2201C24.2211 28.6139 25.5265 27.3086 27.1327 27.3086C28.7389 27.3086 30.0442 28.6139 30.0442 30.2201ZM47.5135 30.2201C47.4939 30.9793 47.1786 31.7008 46.6347 32.2308C46.0908 32.7609 45.3614 33.0575 44.602 33.0575C43.8425 33.0575 43.1131 32.7609 42.5693 32.2308C42.0254 31.7008 41.71 30.9793 41.6904 30.2201C41.6904 28.6139 42.9958 27.3086 44.602 27.3086C46.2082 27.3086 47.5135 28.6139 47.5135 30.2201Z" fill="black"/>
</svg>
