<svg width="70" height="70" viewBox="0 0 70 70" fill="none" xmlns="http://www.w3.org/2000/svg">
<path d="M35.0614 12.7214C22.7533 12.7214 12.7396 22.7352 12.7396 35.0432C12.7396 47.3513 22.7533 57.3651 35.0614 57.3651C47.3695 57.3651 57.3833 47.3513 57.3833 35.0432C57.3833 22.7352 47.3695 12.7214 35.0614 12.7214Z" fill="#FBA28E"/>
<path d="M35.0614 57.3651C47.3895 57.3651 57.3833 47.3713 57.3833 35.0432C57.3833 22.7152 47.3895 12.7214 35.0614 12.7214C22.7334 12.7214 12.7396 22.7152 12.7396 35.0432C12.7396 47.3713 22.7334 57.3651 35.0614 57.3651Z" stroke="black" stroke-width="2" stroke-miterlimit="10"/>
<path d="M25.8416 46.6894C27.6632 42.9694 31.4938 40.6761 35.5467 40.8663C39.2677 41.041 42.6247 43.2858 44.2814 46.6894" stroke="black" stroke-width="2" stroke-miterlimit="10" stroke-linecap="round" stroke-linejoin="round"/>
<path d="M29.2383 30.1907C29.2187 30.9498 28.9034 31.6713 28.3595 32.2014C27.8156 32.7314 27.0862 33.028 26.3268 33.028C25.5673 33.028 24.8379 32.7314 24.2941 32.2014C23.7502 31.6713 23.4348 30.9498 23.4152 30.1907C23.4152 28.5845 24.7206 27.2791 26.3268 27.2791C27.933 27.2791 29.2383 28.5845 29.2383 30.1907ZM46.7076 30.1907C46.688 30.9498 46.3726 31.6713 45.8288 32.2014C45.2849 32.7314 44.5555 33.028 43.7961 33.028C43.0366 33.028 42.3072 32.7314 41.7634 32.2014C41.2195 31.6713 40.9041 30.9498 40.8845 30.1907C40.8845 28.5845 42.1899 27.2791 43.7961 27.2791C45.4023 27.2791 46.7076 28.5845 46.7076 30.1907Z" fill="black"/>
</svg>
