<svg width="20" height="21" viewBox="0 0 20 21" fill="none" xmlns="http://www.w3.org/2000/svg">
<g clip-path="url(#clip0_449_53)">
<rect y="0.241821" width="20" height="20" rx="4" fill="#E5F6FD"/>
<path d="M16.0545 5.52929C16.0309 5.33339 15.8654 5.18093 15.6527 5.18093H13.6909C13.6909 3.56986 12.2491 2.24182 10.4999 2.24182C8.75077 2.24182 7.30896 3.54813 7.30896 5.18093H5.34716C5.13447 5.18093 4.96894 5.33339 4.94536 5.52929L4 15.239V15.2825C4 16.3711 5.08735 17.2418 6.41094 17.2418H14.5891C15.9126 17.2418 17 16.3711 17 15.2825V15.239L16.0545 5.52929ZM10.5 3.00387C11.8 3.00387 12.8636 3.9835 12.8636 5.18092H8.13638C8.13638 3.98366 9.19997 3.00387 10.5 3.00387V3.00387ZM14.589 16.5016H6.41089C5.5364 16.5016 4.82727 15.9574 4.80372 15.3042L5.70193 5.94285H7.30911V7.24917C7.30911 7.44507 7.49822 7.61925 7.71091 7.61925C7.92359 7.61925 8.1127 7.44506 8.1127 7.24917V5.94285H12.8636V7.24917C12.8636 7.44507 13.0527 7.61925 13.2654 7.61925C13.4781 7.61925 13.6672 7.44506 13.6672 7.24917V5.94285H15.2743L16.1726 15.3042C16.1727 15.9574 15.4638 16.5016 14.5891 16.5016H14.589Z" fill="#009ED8"/>
</g>
<defs>
<clipPath id="clip0_449_53">
<rect y="0.241821" width="20" height="20" rx="4" fill="white"/>
</clipPath>
</defs>
</svg>
