<svg width="33" height="33" viewBox="0 0 33 33" fill="none" xmlns="http://www.w3.org/2000/svg">
<g clip-path="url(#clip0_64_332)">
<path d="M27.7365 9.41542H25.1776L18.8994 15.6909C19.1156 16.242 19.1355 16.8507 18.9557 17.4148C18.7759 17.9788 18.4073 18.4637 17.9121 18.788C17.4168 19.1122 16.8249 19.256 16.2361 19.1952C15.6472 19.1345 15.0972 18.8728 14.6786 18.4542C14.26 18.0356 13.9983 17.4856 13.9375 16.8967C13.8768 16.3079 14.0206 15.716 14.3448 15.2207C14.6691 14.7254 15.154 14.3569 15.718 14.1771C16.2821 13.9973 16.8908 14.0172 17.4419 14.2334L23.7188 7.95654V5.39767C23.7189 5.05526 23.8549 4.7269 24.0969 4.48467L26.4756 2.10592C26.5196 2.06148 26.5748 2.02992 26.6354 2.01465C26.696 1.99938 26.7596 2.00099 26.8194 2.01929C26.9418 2.05504 27.0325 2.15679 27.0573 2.28192L27.6898 5.44579L30.8523 6.07829C30.976 6.10304 31.0778 6.19379 31.1135 6.31617C31.1316 6.37561 31.1332 6.43884 31.1182 6.49913C31.1031 6.55941 31.0721 6.6145 31.0283 6.65854L28.6481 9.03729C28.5285 9.15714 28.3864 9.25222 28.23 9.31711C28.0735 9.38199 27.9059 9.4154 27.7365 9.41542Z" fill="#3FB9C6"/>
<path d="M3.60938 16.6342C3.60938 20.053 4.96749 23.3317 7.38495 25.7492C9.80241 28.1667 13.0812 29.5248 16.5 29.5248C18.1928 29.5248 19.8691 29.1914 21.433 28.5435C22.997 27.8957 24.418 26.9462 25.615 25.7492C26.8121 24.5522 27.7616 23.1312 28.4094 21.5672C29.0572 20.0032 29.3906 18.327 29.3906 16.6342C29.3906 15.3994 29.2174 14.2059 28.8942 13.077C28.83 12.8178 28.8688 12.5438 29.0025 12.3127C29.1362 12.0815 29.3544 11.9112 29.6111 11.8377C29.8678 11.7641 30.143 11.793 30.3789 11.9182C30.6147 12.0434 30.7928 12.2553 30.8756 12.5092C31.2524 13.8209 31.4531 15.2042 31.4531 16.6342C31.4531 24.8924 24.7582 31.5873 16.5 31.5873C8.24175 31.5873 1.54688 24.8924 1.54688 16.6342C1.54688 8.37591 8.24175 1.68104 16.5 1.68104C17.8956 1.67966 19.283 1.87354 20.625 2.25716C20.7558 2.29387 20.8782 2.35607 20.9849 2.4402C21.0916 2.52433 21.1807 2.62873 21.2469 2.74739C21.3131 2.86605 21.3553 2.99663 21.3709 3.13163C21.3865 3.26663 21.3753 3.40338 21.3379 3.53403C21.3004 3.66468 21.2376 3.78664 21.1529 3.8929C21.0681 3.99917 20.9633 4.08765 20.8443 4.15324C20.7252 4.21884 20.5944 4.26027 20.4593 4.27514C20.3243 4.29002 20.1876 4.27804 20.0571 4.23991C18.9003 3.90954 17.703 3.74247 16.5 3.74354C13.0812 3.74354 9.80241 5.10165 7.38495 7.51911C4.96749 9.93657 3.60938 13.2154 3.60938 16.6342Z" fill="#3FB9C6"/>
<path d="M9.79687 16.6341C9.80071 17.5448 9.99012 18.4452 10.3535 19.2802C10.717 20.1153 11.2468 20.8675 11.9106 21.491C12.5744 22.1144 13.3584 22.5961 14.2145 22.9064C15.0707 23.2168 15.9812 23.3494 16.8903 23.2962C17.7995 23.243 18.6882 23.005 19.5023 22.5968C20.3164 22.1886 21.0388 21.6188 21.6253 20.9221C22.2119 20.2254 22.6503 19.4165 22.9137 18.5448C23.1772 17.673 23.2602 16.7567 23.1577 15.8518C23.1289 15.6685 23.1501 15.4808 23.2192 15.3086C23.2883 15.1365 23.4027 14.9862 23.5503 14.8737C23.6978 14.7613 23.8731 14.6908 24.0574 14.6698C24.2417 14.6488 24.4283 14.6781 24.5974 14.7545C24.9425 14.9085 25.1749 15.2371 25.2051 15.6139C25.4186 17.4224 25.0634 19.2524 24.1888 20.8497C23.3143 22.4469 21.9638 23.7321 20.3252 24.5264C18.6866 25.3208 16.8412 25.5849 15.0455 25.2821C13.2498 24.9793 11.5931 24.1246 10.3056 22.8368C9.01848 21.5504 8.16355 19.8953 7.8594 18.1011C7.55525 16.3069 7.81695 14.4625 8.60822 12.8238C9.39949 11.185 10.6811 9.83314 12.2753 8.95557C13.8695 8.078 15.6973 7.71827 17.5051 7.92627C17.6418 7.93895 17.7746 7.97878 17.8956 8.04344C18.0167 8.10809 18.1236 8.19627 18.2102 8.30279C18.2968 8.40932 18.3612 8.53205 18.3997 8.66379C18.4382 8.79553 18.45 8.93364 18.4345 9.07001C18.4189 9.20638 18.3763 9.33827 18.3091 9.45795C18.2419 9.57764 18.1515 9.6827 18.0431 9.76699C17.9348 9.85128 17.8108 9.9131 17.6782 9.94882C17.5457 9.98454 17.4074 9.99345 17.2714 9.97502C16.3323 9.86645 15.3809 9.9577 14.4795 10.2428C13.5782 10.5279 12.7473 11.0003 12.0415 11.6292C11.3356 12.258 10.7708 13.029 10.3839 13.8916C9.99707 14.7542 9.79702 15.6888 9.79687 16.6341Z" fill="#3FB9C6"/>
</g>
<defs>
<clipPath id="clip0_64_332">
<rect width="32.8417" height="32.8417" fill="white" transform="translate(0 0.134155)"/>
</clipPath>
</defs>
</svg>
