<svg width="56" height="56" viewBox="0 0 56 56" fill="none" xmlns="http://www.w3.org/2000/svg">
<circle cx="28" cy="28" r="28" fill="#F4F7FE"/>
<g clip-path="url(#clip0_375_58)">
<path d="M23.6901 23.4746C24.9917 22.108 24.9917 19.8915 23.6901 18.5249C22.3885 17.1582 20.2776 17.1582 18.976 18.5249C17.6745 19.8915 17.6745 22.108 18.976 23.4746C20.2781 24.8418 22.3885 24.8418 23.6901 23.4746ZM37.0234 32.5249C35.7219 31.1582 33.6109 31.1582 32.3094 32.5249C31.0078 33.8915 31.0078 36.108 32.3094 37.4746C33.6109 38.8413 35.7219 38.8413 37.0234 37.4746C38.3255 36.108 38.3255 33.892 37.0234 32.5249ZM36.9224 19.8685L35.7443 18.6315C35.0932 17.9479 34.038 17.9479 33.3875 18.6315L19.0776 33.6569C18.4266 34.3405 18.4266 35.4485 19.0776 36.1315L20.2557 37.3685C20.9068 38.0521 21.962 38.0521 22.6125 37.3685L36.9224 22.3431C37.5734 21.6601 37.5734 20.5521 36.9224 19.8685Z" fill="#113397"/>
</g>
<defs>
<clipPath id="clip0_375_58">
<rect width="20" height="28" fill="white" transform="translate(18 14)"/>
</clipPath>
</defs>
</svg>
