<svg width="56" height="57" viewBox="0 0 56 57" fill="none" xmlns="http://www.w3.org/2000/svg">
<circle cx="28" cy="28.1342" r="28" fill="#F4F7FE"/>
<g clip-path="url(#clip0_303_54)">
<g clip-path="url(#clip1_303_54)">
<path d="M28.147 26.0498C25.0407 25.2424 24.0418 24.4077 24.0418 23.1077C24.0418 21.6161 25.4239 20.5762 27.7365 20.5762C29.6796 20.5762 30.6512 21.3151 31.0069 22.4919C31.1711 23.0393 31.6227 23.4498 32.1974 23.4498H32.608C33.5111 23.4498 34.1543 22.5603 33.8395 21.7119C33.2648 20.0972 31.9238 18.7562 29.7891 18.2362V17.292C29.7891 16.1562 28.8722 15.2394 27.7365 15.2394C26.6007 15.2394 25.6838 16.1562 25.6838 17.292V18.1951C23.0291 18.7699 20.8944 20.494 20.8944 23.1351C20.8944 26.2961 23.5081 27.8697 27.3259 28.7866C30.7469 29.6076 31.4311 30.8118 31.4311 32.0844C31.4311 33.0286 30.7606 34.5339 27.7365 34.5339C25.4786 34.5339 24.3154 33.7265 23.8639 32.577C23.6586 32.0434 23.1934 31.6602 22.6323 31.6602H22.2492C21.3323 31.6602 20.6892 32.5907 21.0313 33.4391C21.8113 35.3412 23.6312 36.4633 25.6838 36.9012V37.818C25.6838 38.9538 26.6007 39.8706 27.7365 39.8706C28.8722 39.8706 29.7891 38.9538 29.7891 37.818V36.9286C32.4574 36.4223 34.5785 34.876 34.5785 32.0707C34.5785 28.1845 31.2532 26.8571 28.147 26.0498Z" fill="#113397"/>
</g>
</g>
<defs>
<clipPath id="clip0_303_54">
<rect width="32.8417" height="32.8417" fill="white" transform="translate(12 11.1342)"/>
</clipPath>
<clipPath id="clip1_303_54">
<rect width="32.8417" height="32.8417" fill="white" transform="translate(12 11.1342)"/>
</clipPath>
</defs>
</svg>
