<svg width="56" height="57" viewBox="0 0 56 57" fill="none" xmlns="http://www.w3.org/2000/svg">
<circle cx="28" cy="28.1342" r="28" fill="#F4F7FE"/>
<path d="M19.9158 23.8814H20.1894C21.2431 23.8814 22.1052 24.7435 22.1052 25.7972V35.376C22.1052 36.4297 21.2431 37.2918 20.1894 37.2918H19.9158C18.8621 37.2918 18 36.4297 18 35.376V25.7972C18 24.7435 18.8621 23.8814 19.9158 23.8814ZM27.5788 18.1342C28.6325 18.1342 29.4946 18.9962 29.4946 20.0499V35.376C29.4946 36.4297 28.6325 37.2918 27.5788 37.2918C26.5252 37.2918 25.6631 36.4297 25.6631 35.376V20.0499C25.6631 18.9962 26.5252 18.1342 27.5788 18.1342ZM35.2419 29.0814C36.2955 29.0814 37.1576 29.9435 37.1576 30.9971V35.376C37.1576 36.4297 36.2955 37.2918 35.2419 37.2918C34.1882 37.2918 33.3261 36.4297 33.3261 35.376V30.9971C33.3261 29.9435 34.1882 29.0814 35.2419 29.0814Z" fill="#113397"/>
</svg>
