<svg width="56" height="57" viewBox="0 0 56 57" fill="none" xmlns="http://www.w3.org/2000/svg">
<circle cx="28" cy="28.4769" r="28" fill="#F4F7FE"/>
<g clip-path="url(#clip0_245_53)">
<path d="M40.7365 21.4154H38.1776L31.8993 27.6909C32.1156 28.242 32.1355 28.8507 31.9557 29.4148C31.7759 29.9788 31.4073 30.4637 30.912 30.788C30.4167 31.1122 29.8249 31.256 29.236 31.1952C28.6472 31.1345 28.0972 30.8728 27.6786 30.4542C27.26 30.0356 26.9983 29.4856 26.9375 28.8967C26.8767 28.3079 27.0205 27.716 27.3448 27.2207C27.6691 26.7254 28.154 26.3569 28.718 26.1771C29.282 25.9973 29.8908 26.0172 30.4418 26.2334L36.7187 19.9565V17.3977C36.7189 17.0553 36.8548 16.7269 37.0968 16.4847L39.4756 14.1059C39.5195 14.0615 39.5748 14.0299 39.6354 14.0147C39.696 13.9994 39.7596 14.001 39.8193 14.0193C39.9417 14.055 40.0325 14.1568 40.0572 14.2819L40.6897 17.4458L43.8522 18.0783C43.976 18.103 44.0777 18.1938 44.1135 18.3162C44.1315 18.3756 44.1331 18.4388 44.1181 18.4991C44.1031 18.5594 44.072 18.6145 44.0282 18.6585L41.6481 21.0373C41.5284 21.1571 41.3864 21.2522 41.2299 21.3171C41.0735 21.382 40.9058 21.4154 40.7365 21.4154Z" fill="#113397"/>
<path d="M16.6094 28.6342C16.6094 32.053 17.9675 35.3317 20.385 37.7492C22.8024 40.1667 26.0812 41.5248 29.5 41.5248C31.1928 41.5248 32.8691 41.1914 34.433 40.5435C35.997 39.8957 37.418 38.9462 38.615 37.7492C39.8121 36.5522 40.7616 35.1312 41.4094 33.5672C42.0572 32.0032 42.3906 30.327 42.3906 28.6342C42.3906 27.3994 42.2174 26.2059 41.8942 25.077C41.83 24.8178 41.8688 24.5438 42.0025 24.3127C42.1362 24.0815 42.3544 23.9112 42.6111 23.8377C42.8678 23.7641 43.143 23.793 43.3789 23.9182C43.6147 24.0434 43.7928 24.2553 43.8756 24.5092C44.2524 25.8209 44.4531 27.2042 44.4531 28.6342C44.4531 36.8924 37.7582 43.5873 29.5 43.5873C21.2417 43.5873 14.5469 36.8924 14.5469 28.6342C14.5469 20.3759 21.2417 13.681 29.5 13.681C30.8956 13.6797 32.283 13.8735 33.625 14.2572C33.7558 14.2939 33.8782 14.3561 33.9849 14.4402C34.0916 14.5243 34.1807 14.6287 34.2469 14.7474C34.3131 14.866 34.3553 14.9966 34.3709 15.1316C34.3865 15.2666 34.3753 15.4034 34.3379 15.534C34.3004 15.6647 34.2376 15.7866 34.1529 15.8929C34.0681 15.9992 33.9633 16.0876 33.8443 16.1532C33.7252 16.2188 33.5944 16.2603 33.4593 16.2751C33.3243 16.29 33.1876 16.278 33.0571 16.2399C31.9003 15.9095 30.703 15.7425 29.5 15.7435C26.0812 15.7435 22.8024 17.1017 20.385 19.5191C17.9675 21.9366 16.6094 25.2154 16.6094 28.6342Z" fill="#113397"/>
<path d="M22.7969 28.6342C22.8007 29.5449 22.9901 30.4452 23.3536 31.2803C23.717 32.1153 24.2468 32.8675 24.9106 33.491C25.5744 34.1145 26.3584 34.5961 27.2146 34.9065C28.0707 35.2168 28.9812 35.3495 29.8903 35.2962C30.7995 35.243 31.6882 35.005 32.5023 34.5968C33.3165 34.1886 34.0388 33.6188 34.6254 32.9221C35.2119 32.2255 35.6503 31.4165 35.9137 30.5448C36.1772 29.673 36.2602 28.7567 36.1578 27.8518C36.1289 27.6685 36.1501 27.4809 36.2192 27.3087C36.2883 27.1365 36.4027 26.9862 36.5503 26.8737C36.6978 26.7613 36.8731 26.6908 37.0574 26.6698C37.2417 26.6489 37.4283 26.6781 37.5974 26.7545C37.9425 26.9085 38.1749 27.2372 38.2051 27.6139C38.4186 29.4224 38.0634 31.2524 37.1889 32.8497C36.3143 34.447 34.9639 35.7321 33.3252 36.5265C31.6866 37.3208 29.8412 37.585 28.0455 37.2821C26.2499 36.9793 24.5931 36.1246 23.3056 34.8368C22.0185 33.5504 21.1636 31.8953 20.8594 30.1011C20.5553 28.3069 20.817 26.4626 21.6082 24.8238C22.3995 23.1851 23.6811 21.8332 25.2753 20.9556C26.8695 20.078 28.6973 19.7183 30.5051 19.9263C30.6418 19.939 30.7746 19.9788 30.8956 20.0435C31.0167 20.1081 31.1237 20.1963 31.2102 20.3028C31.2968 20.4093 31.3612 20.5321 31.3997 20.6638C31.4382 20.7956 31.45 20.9337 31.4345 21.07C31.4189 21.2064 31.3763 21.3383 31.3091 21.458C31.2419 21.5777 31.1515 21.6827 31.0432 21.767C30.9348 21.8513 30.8108 21.9131 30.6782 21.9489C30.5457 21.9846 30.4074 21.9935 30.2714 21.975C29.3323 21.8665 28.3809 21.9577 27.4795 22.2428C26.5782 22.5279 25.7473 23.0004 25.0415 23.6292C24.3357 24.2581 23.7708 25.0291 23.3839 25.8916C22.9971 26.7542 22.797 27.6888 22.7969 28.6342Z" fill="#113397"/>
</g>
<defs>
<clipPath id="clip0_245_53">
<rect width="32.8417" height="32.8417" fill="white" transform="translate(13 12.1342)"/>
</clipPath>
</defs>
</svg>
