<svg width="20" height="20" viewBox="0 0 20 20" fill="none" xmlns="http://www.w3.org/2000/svg">
<path d="M1.91576 5.88145H2.18944C3.24311 5.88145 4.10521 6.74354 4.10521 7.79721V17.376C4.10521 18.4297 3.24311 19.2918 2.18944 19.2918H1.91576C0.862094 19.2918 0 18.4297 0 17.376V7.79721C0 6.74354 0.862094 5.88145 1.91576 5.88145ZM9.57882 0.134155C10.6325 0.134155 11.4946 0.996249 11.4946 2.04992V17.376C11.4946 18.4297 10.6325 19.2918 9.57882 19.2918C8.52515 19.2918 7.66306 18.4297 7.66306 17.376V2.04992C7.66306 0.996249 8.52515 0.134155 9.57882 0.134155ZM17.2419 11.0814C18.2955 11.0814 19.1576 11.9435 19.1576 12.9971V17.376C19.1576 18.4297 18.2955 19.2918 17.2419 19.2918C16.1882 19.2918 15.3261 18.4297 15.3261 17.376V12.9971C15.3261 11.9435 16.1882 11.0814 17.2419 11.0814Z" fill="#3FB9C6"/>
</svg>
