<svg width="15" height="25" viewBox="0 0 15 25" fill="none" xmlns="http://www.w3.org/2000/svg">
<path d="M8.14699 11.0497C5.04071 10.2424 4.04178 9.40765 4.04178 8.10767C4.04178 6.61611 5.42386 5.57612 7.73646 5.57612C9.6796 5.57612 10.6512 6.31506 11.0069 7.49188C11.1712 8.03925 11.6227 8.44977 12.1975 8.44977H12.608C13.5111 8.44977 14.1543 7.5603 13.8395 6.71189C13.2648 5.09718 11.9238 3.75614 9.78907 3.23615V2.29195C9.78907 1.15618 8.87224 0.239349 7.73646 0.239349C6.60069 0.239349 5.68386 1.15618 5.68386 2.29195V3.1951C3.02916 3.76983 0.894451 5.49402 0.894451 8.13503C0.894451 11.296 3.5081 12.8697 7.32594 13.7865C10.747 14.6076 11.4312 15.8118 11.4312 17.0844C11.4312 18.0286 10.7606 19.5338 7.73646 19.5338C5.4786 19.5338 4.31546 18.7265 3.86389 17.577C3.65862 17.0433 3.19337 16.6602 2.63232 16.6602H2.24917C1.33234 16.6602 0.689191 17.5907 1.03129 18.4391C1.81128 20.3412 3.63126 21.4633 5.68386 21.9012V22.818C5.68386 23.9538 6.60069 24.8706 7.73646 24.8706C8.87224 24.8706 9.78907 23.9538 9.78907 22.818V21.9285C12.4575 21.4222 14.5785 19.8759 14.5785 17.0707C14.5785 13.1844 11.2533 11.8571 8.14699 11.0497Z" fill="#3FB9C6"/>
</svg>
