<svg width="21" height="21" viewBox="0 0 21 21" fill="none" xmlns="http://www.w3.org/2000/svg">
<g clip-path="url(#clip0_70_498)">
<rect x="0.5" y="0.241821" width="20" height="20" rx="4" fill="#EBFFED"/>
<path d="M4.38737 9.63437H5.55429V15.8531C5.55429 16.0708 5.72545 16.2418 5.94327 16.2418H16.0566C16.2744 16.2418 16.4456 16.0708 16.4456 15.8531V9.63437H17.6125C17.9548 9.63437 18.126 9.21458 17.8925 8.96591L11.28 2.35846C11.1243 2.20294 10.8754 2.20294 10.7353 2.35846L4.10747 8.96591C3.87402 9.21458 4.04518 9.63437 4.38748 9.63437H4.38737ZM10.9999 3.18239L16.679 8.85702H16.0567C15.8389 8.85702 15.6677 9.02805 15.6677 9.2457V15.4645H6.3323V9.2457C6.3323 9.02805 6.16115 8.85702 5.94332 8.85702H5.32102L10.9999 3.18239Z" fill="#58D365" fill-opacity="0.7"/>
</g>
<defs>
<clipPath id="clip0_70_498">
<rect x="0.5" y="0.241821" width="20" height="20" rx="4" fill="white"/>
</clipPath>
</defs>
</svg>
