<svg width="20" height="21" viewBox="0 0 20 21" fill="none" xmlns="http://www.w3.org/2000/svg">
<path opacity="0.5" d="M10.6625 1.80081H8.99584C7.42417 1.80081 6.63834 1.80081 6.15084 2.28915C5.66251 2.77748 5.66251 3.56248 5.66251 5.13415V8.05081H13.9958V5.13415C13.9958 3.56248 13.9958 2.77748 13.5075 2.28915C13.0192 1.80081 12.2342 1.80081 10.6625 1.80081Z" fill="#3FB9C6"/>
<path fill-rule="evenodd" clip-rule="evenodd" d="M10.6917 5.30501C10.3246 5.10487 9.91312 5 9.495 5C9.07688 5 8.66544 5.10487 8.29833 5.30501L4.30333 7.48334C3.90892 7.69837 3.57973 8.01569 3.35039 8.40195C3.12104 8.78821 3 9.22912 3 9.67834V13.7933C3 14.2426 3.12104 14.6835 3.35039 15.0697C3.57973 15.456 3.90892 15.7733 4.30333 15.9883L8.29833 18.1667C8.66544 18.3668 9.07688 18.4717 9.495 18.4717C9.91312 18.4717 10.3246 18.3668 10.6917 18.1667L14.6875 15.9883C15.0819 15.7733 15.4111 15.456 15.6404 15.0697C15.8698 14.6835 15.9908 14.2426 15.9908 13.7933V9.67751C15.9908 9.22829 15.8698 8.78737 15.6404 8.40111C15.4111 8.01486 15.0819 7.69753 14.6875 7.48251L10.6917 5.30501ZM9.495 9.23584C9.25833 9.23584 9.1 9.51917 8.78333 10.0883L8.70167 10.235C8.61167 10.3967 8.56667 10.4767 8.49667 10.53C8.42667 10.5833 8.33833 10.6033 8.16417 10.6425L8.00583 10.6792C7.39 10.8183 7.0825 10.8875 7.01 11.1225C6.93667 11.3583 7.14583 11.6033 7.565 12.0933L7.67333 12.22C7.79333 12.3592 7.8525 12.4283 7.87917 12.515C7.90583 12.6017 7.8975 12.6942 7.87917 12.88L7.8625 13.0492C7.79917 13.7033 7.7675 14.0308 7.95917 14.1758C8.15083 14.3208 8.43833 14.1883 9.01417 13.9233L9.16333 13.855C9.32667 13.78 9.40833 13.7425 9.495 13.7425C9.58167 13.7425 9.66417 13.78 9.8275 13.855L9.97667 13.9233C10.5517 14.1892 10.84 14.3208 11.0317 14.1758C11.2233 14.0308 11.1917 13.7033 11.1283 13.0492L11.1117 12.88C11.0933 12.6942 11.0842 12.6017 11.1117 12.515C11.1383 12.4292 11.1975 12.3592 11.3167 12.22L11.425 12.0933C11.845 11.6033 12.0542 11.3583 11.9808 11.1225C11.9075 10.8875 11.6 10.8183 10.9858 10.6792L10.8267 10.6425C10.6517 10.6033 10.5642 10.5842 10.4942 10.53C10.4242 10.4767 10.3792 10.3967 10.2892 10.235L10.2075 10.0883C9.89083 9.52001 9.7325 9.23584 9.495 9.23584Z" fill="#3FB9C6"/>
</svg>
